<svg width="251" height="71" viewBox="0 0 251 71" fill="none" xmlns="http://www.w3.org/2000/svg">
<path d="M221.932 0C221.932 8.1835 221.932 16.367 221.932 23.921C226.248 23.26 230.439 21.9066 234.535 22.1269C243.263 22.5991 249.218 28.1387 249.817 37.2035C250.541 47.9994 249.974 58.8583 249.974 69.8745C246.225 69.8745 242.696 69.8745 238.757 69.8745C238.757 61.1559 238.757 52.6577 238.757 44.1909C238.757 43.2152 238.757 42.2709 238.757 41.2952C238.663 35.0002 236.741 32.2934 232.203 32.136C226.689 31.9471 222.121 35.7241 221.869 41.2952C221.522 48.5659 221.711 55.8681 221.711 63.1703C221.711 65.3421 221.711 67.5139 221.711 69.8745C217.835 69.8745 214.401 69.8745 210.273 69.8745C210.273 46.6145 210.273 23.2915 210.273 0C214.149 0 218.056 0 221.932 0Z" fill="white"/>
<path d="M76.9902 0C76.9902 23.2286 76.9902 46.4256 76.9902 69.8745C72.9571 69.8745 69.4596 69.8745 65.332 69.8745C65.332 46.4256 65.332 23.2286 65.332 0C69.2076 0 73.0831 0 76.9902 0Z" fill="white"/>
<path d="M203.531 29.555C201.294 31.9156 199.057 34.3077 196.82 36.6369C187.966 30.7196 180.215 30.7825 175.205 36.7313C170.762 41.9876 171.204 50.8006 176.119 55.6163C181.664 61.03 189.636 60.6208 196.946 54.2629C199.246 56.8753 201.609 59.4877 203.972 62.1631C195.843 71.8889 178.829 72.6443 168.872 63.3906C158.789 54.0111 158.663 37.172 168.62 27.9183C178.356 18.822 195.528 19.7033 203.531 29.555Z" fill="white"/>
<path d="M139.599 33.8041C137.519 33.8041 136.29 33.8041 135.061 33.8041C133.959 33.8041 132.856 33.8041 131.375 33.8041C131.375 30.153 131.375 26.6593 131.375 22.7879C133.864 22.6305 136.416 22.4731 139.41 22.2843C139.41 16.8391 139.41 11.5513 139.41 6.01172C143.348 6.01172 146.877 6.01172 150.879 6.01172C150.879 11.5198 150.879 16.8076 150.879 22.3158C153.778 22.4731 156.235 22.599 158.976 22.7564C158.976 26.376 158.976 29.8383 158.976 33.6782C156.456 33.6782 154.03 33.6782 151.005 33.6782C151.005 45.8905 151.005 57.7566 151.005 69.843C147.003 69.843 143.6 69.843 139.63 69.843C139.599 58.1029 139.599 46.2368 139.599 33.8041Z" fill="white"/>
<path d="M185.285 53.6019C180.874 53.5704 177.282 50.0452 177.345 45.8276C177.408 41.5784 181.031 38.0847 185.411 38.1162C189.79 38.1477 193.382 41.7043 193.351 45.9535C193.288 50.2026 189.696 53.6334 185.285 53.6019Z" fill="#EF4135"/>
<path d="M126.524 22.3472H116.599L116.82 40.1305C116.82 42.5541 116.851 45.0092 116.883 47.4327C117.009 54.5776 112.598 59.3303 105.603 59.4562C100.12 59.5506 97.0954 55.5533 97.0009 48.1567C96.9694 46.7718 97.0009 45.4183 97.0009 44.0334C97.0009 37.046 97.0009 30.0585 97.0009 22.6304L85.5003 22.3472L85.5633 31.0972C85.5318 37.5181 85.3743 43.9075 85.6893 50.297C86.4771 66.5381 99.7106 74.4698 114.142 68.0489C116.095 67.0732 117.229 65.7827 117.229 65.7827V69.8744C120.349 69.8744 123.342 69.8744 126.556 69.8744V69.9059H128.635V22.3472H126.524Z" fill="white"/>
<path d="M51.5961 50.8637C41.1038 60.7154 27.6497 61.754 18.7328 53.6964C9.81584 45.6074 8.65003 30.1846 16.2751 20.5533C19.7725 16.1153 24.3728 13.5973 30.0128 12.7789C38.5516 11.5514 45.3259 15.171 51.1865 20.4274C53.6442 17.9094 55.9128 15.5802 58.3074 13.0937C49.359 3.90298 38.4571 0.0315546 25.6331 3.02168C15.8655 5.28788 8.99662 10.7645 4.71146 18.7907C-0.487443 29.02 -0.109341 38.2737 1.40307 44.7261C4.61694 57.2216 12.2105 65.8458 25.066 68.8044C38.016 71.7946 49.4851 68.6471 58.7171 58.3233C56.2279 55.7423 53.8963 53.2873 51.5961 50.8637Z" fill="white"/>
</svg>
