<svg width="297" height="227" viewBox="0 0 297 227" fill="none" xmlns="http://www.w3.org/2000/svg">
<circle cx="182.678" cy="112.38" r="106.942" fill="#00CD83"/>
<circle cx="182.678" cy="112.38" r="106.942" fill="white"/>
<circle cx="182.677" cy="144.928" r="9.29934" fill="#19D28F"/>
<g clip-path="url(#clip0_745_310)">
<path d="M174.57 0.809987C138.772 3.72327 105.799 24.1162 87.2595 54.7498C83.9489 60.1791 81.3888 65.0787 81.6536 65.3436C81.786 65.476 86.8622 67.5948 92.9095 70.0666C99.0009 72.5385 105.181 75.3635 106.725 76.3346C110.124 78.5416 114.891 83.5737 117.099 87.3256C120.762 93.5936 122.395 99.685 123.102 109.837C123.543 116.547 124.691 120.564 127.118 124.36C129.546 128.156 132.15 130.054 138.992 133.144C142.435 134.689 146.364 136.675 147.776 137.602C151.087 139.721 155.766 144.753 157.929 148.505C158.9 150.138 163.358 160.555 167.86 171.59C172.363 182.625 179.204 199.399 183.089 208.889L190.107 226.104L192.711 225.971C198.891 225.618 214.296 222.705 216.238 221.513C216.768 221.16 216.68 218.644 215.665 205.093C214.384 187.657 214.252 182.449 215.002 178.388C217.254 165.543 225.287 155.081 237.161 149.52C242.414 147.048 247.181 145.989 253.184 145.989C259.673 145.989 260.732 146.209 275.563 150.888C282.538 153.051 288.452 154.728 288.673 154.596C289.291 154.243 292.558 143.87 293.749 138.529C297.016 124.006 297.457 108.778 295.029 94.7854C294.058 89.3561 293.043 85.0744 292.734 85.1186C292.558 85.1186 287.658 90.901 281.831 97.9635C270.355 111.912 267.618 114.56 261.968 117.297C256.318 120.034 253.67 120.608 246.298 120.608C236.411 120.564 235.837 120.299 215.62 107.807C206.351 102.069 204.541 100.744 201.01 97.2131C197.611 93.8584 196.684 92.5342 194.918 89.0471C191.961 82.9998 191.343 80.219 191.343 73.3772C191.387 66.7119 192.049 63.7545 194.698 58.3252C195.669 56.3389 197.743 53.1608 199.333 51.2627C202.643 47.2901 203.526 45.7451 204.585 42.0815C206.042 37.0936 205.556 34.6217 199.73 17.0979C196.905 8.49046 194.433 1.29553 194.256 1.11897C193.771 0.633424 179.69 0.368581 174.57 0.809987Z" fill="#19D28F"/>
<path d="M211.43 4.25293C211.43 4.42949 213.195 10.0353 215.358 16.7006C219.949 30.7373 220.478 33.2975 220.125 39.124C219.64 46.9811 217.212 52.9842 211.65 59.9143C207.854 64.7256 206.574 67.5947 206.221 72.0971C206 75.7166 206.618 78.983 208.207 82.1611C210.282 86.2662 212.71 88.2525 225.378 96.1537C231.999 100.259 238.355 104.055 239.547 104.585C242.549 105.953 248.861 106.218 252.26 105.114C257.645 103.437 258.837 102.289 273.271 84.8978C280.642 76.0256 286.733 68.4334 286.822 68.0803C287.042 67.1092 281.613 56.8686 277.861 51.3068C262.721 28.5303 240.121 11.9334 214.431 4.73847C212.754 4.29707 211.43 4.07636 211.43 4.25293Z" fill="#19D28F"/>
<path d="M74.9891 82.5584C73.7531 86.6635 72.1641 94.3439 71.4578 99.6408C70.5308 106.041 70.7074 122.462 71.6785 128.994C73.4883 141.045 76.9312 151.992 82.3164 162.983C96.0883 191.144 121.116 212.464 150.955 221.557C158.415 223.808 174.438 226.678 173.776 225.618C173.643 225.397 167.552 210.522 160.225 192.557C152.897 174.592 146.364 158.789 145.746 157.465C145.084 156.141 143.363 153.846 141.906 152.389C139.611 150.049 138.463 149.343 133.078 146.915C129.679 145.415 125.662 143.34 124.118 142.369C118.909 138.97 113.789 132.437 111.096 125.64C109.33 121.181 108.624 117.694 108.139 110.897C107.388 100.612 105.623 95.7123 100.988 91.0775C98.2953 88.4291 97.898 88.2084 89.1582 84.6771C84.1703 82.6467 79.1824 80.6162 78.0348 80.1748L75.9601 79.3803L74.9891 82.5584Z" fill="#19D28F"/>
<path d="M252.036 160.864C245.989 161.305 241.089 163.556 236.719 167.882C231.731 172.782 229.524 178.167 229.524 185.45C229.524 188.584 231.29 215.378 231.555 215.687C231.82 215.996 241.001 210.831 245.503 207.83C259.099 198.869 271.193 186.465 279.536 173.003C280.904 170.796 282.052 168.853 282.052 168.765C282.052 168.677 281.39 168.368 280.639 168.103C279.845 167.882 274.68 166.249 269.207 164.528C259.672 161.57 255.435 160.643 252.036 160.864Z" fill="#19D28F"/>
</g>
<path fill-rule="evenodd" clip-rule="evenodd" d="M58.5555 0C42.2664 0 29.0612 13.205 29.0612 29.4943V76.1769C29.0612 83.3552 25.4064 90.0393 19.3633 93.9131L5.81881 102.595C2.19286 104.92 0 108.93 0 113.237C0 117.544 2.19286 121.555 5.81881 123.879L19.3633 132.561C25.4064 136.435 29.0612 143.119 29.0612 150.297V196.98C29.0612 213.269 42.2664 226.474 58.5555 226.474H65.0591C72.0403 226.474 77.6995 220.815 77.6995 213.834C77.6995 206.853 72.0403 201.193 65.0591 201.193H58.5555C56.2285 201.193 54.342 199.307 54.342 196.98V150.297C54.342 135.656 47.4304 121.949 35.8279 113.237C47.4304 104.526 54.342 90.8182 54.342 76.1769V29.4943C54.342 27.1673 56.2285 25.2808 58.5555 25.2808H65.0591C72.0403 25.2808 77.6995 19.6215 77.6995 12.6404C77.6995 5.6593 72.0403 0 65.0591 0H58.5555Z" fill="#2F83CB"/>
<defs>
<clipPath id="clip0_745_310">
<rect width="226" height="226" fill="white" transform="translate(70.6162 0.324463)"/>
</clipPath>
</defs>
</svg>
