<svg width="1136" height="319" viewBox="0 0 1136 319" fill="none" xmlns="http://www.w3.org/2000/svg">
<path d="M108.703 100.248H68.0865L0.269531 246.702H42.0502L65.0847 194.069L87.8128 217.692H125.06L138.415 246.763H175.356L108.703 100.248ZM67.5351 189.234L87.8128 140.824L113.543 189.234H67.5351Z" fill="url(#paint0_linear_747_388)"/>
<path d="M233.555 100.248H192.938V246.702H233.555V100.248Z" fill="url(#paint1_linear_747_388)"/>
<path d="M350.443 192.233C350.443 192.233 384.382 188.01 386.22 148.046C388.418 100.248 350.443 100.248 350.443 100.248H251.688V246.702H289.242V173.505L344.378 246.763H386.22L350.443 192.233ZM341.07 164.998H288.384V130.481H342.601C342.601 130.481 351.668 133.786 351.055 145.292C350.443 156.859 346.216 162.918 341.07 164.998Z" fill="url(#paint2_linear_747_388)"/>
<path d="M663.368 192.233C663.368 192.233 697.308 188.01 699.145 148.046C703 100.248 663.368 100.248 663.368 100.248H564.614V246.702H602.168V173.505L657.304 246.763H699.145L663.368 192.233ZM653.995 164.998H601.31V130.481H655.527C655.527 130.481 666 131.479 666 146.5C666 162.5 659.141 162.918 653.995 164.998Z" fill="url(#paint3_linear_747_388)"/>
<path d="M403.986 100.248H483.933C483.933 100.248 533 100.248 540.049 152.207C547.278 194.681 530.369 246.763 501.699 246.763C473.028 246.763 403.925 246.763 403.925 246.763V156.308H441.111V217.264H489.569C489.569 217.264 505.742 208.818 504.088 173.505C502.495 138.192 488.711 130.542 480.686 130.542C472.661 130.542 420.098 130.542 420.098 130.542L403.986 100.248Z" fill="url(#paint4_linear_747_388)"/>
<path d="M1101.15 100.248H1003.37V246.702H1039.7L1039.95 174.852L1062.31 191.804C1062.31 191.804 1089.75 191.804 1097.84 191.804C1105.93 191.804 1131.78 178.891 1135.02 147.74C1139.97 100.248 1101.15 100.248 1101.15 100.248ZM1100.53 147.74C1099.31 162.55 1098.08 164.998 1089.02 164.998C1079.95 164.998 1039.95 164.998 1039.95 164.998V130.481H1086.02C1086.02 130.481 1101.76 132.929 1100.53 147.74Z" fill="url(#paint5_linear_747_388)"/>
<path d="M965.451 87.5181C965.451 87.5181 1017.59 182.563 954.547 252.149C954.547 252.149 910.132 310.045 841.028 301.599C841.028 301.599 844.643 235.808 863.266 217.264V283.422C863.266 283.422 951.729 256.983 966.677 194.987C981.563 132.99 965.451 87.5181 965.451 87.5181Z" fill="url(#paint6_linear_747_388)"/>
<path d="M926.672 55.4488C926.672 55.4488 846.726 13.0978 789.752 42.107C732.778 71.1775 715.257 123.627 712.194 152.146C712.194 152.146 749.135 126.197 770.945 130.481C770.945 130.481 744.908 125.646 736.393 125.646C736.393 125.646 756.18 71.1775 810.887 53.0008C865.594 34.8241 926.672 55.4488 926.672 55.4488Z" fill="url(#paint7_linear_747_388)"/>
<path d="M712.194 197.68C712.194 197.68 750.973 149.882 784.912 139.6C784.912 139.6 733.391 150.494 712.194 168.671C712.194 168.671 709.131 187.704 712.194 197.68Z" fill="url(#paint8_linear_747_388)"/>
<path d="M733.085 239.786C733.085 239.786 784.3 156.247 820.628 135.683C820.628 135.683 750.36 170.507 716.728 208.635C716.728 208.574 716.728 226.75 733.085 239.786Z" fill="url(#paint9_linear_747_388)"/>
<path d="M789.323 289.91C789.323 289.91 834.167 194.253 864.859 168.671C864.859 168.671 780.44 243.519 761.449 274.609C761.449 274.548 776.826 288.686 789.323 289.91Z" fill="url(#paint10_linear_747_388)"/>
<path d="M828.102 302.456C828.102 302.456 841.825 219.1 862.409 194.987C862.409 194.987 813.154 260.044 798.206 291.929C798.206 291.929 809.54 299.273 828.102 302.456Z" fill="url(#paint11_linear_747_388)"/>
<path d="M774.008 289.91C774.008 289.91 739.273 337.952 723.099 310.473C706.926 282.994 792.571 158.756 883.054 113.528C883.054 113.528 860.02 86.2941 836.985 78.3992C836.985 78.3992 873.743 82.8668 885.076 87.4569C885.076 87.4569 895.552 76.3795 895.552 87.4569C895.552 87.4569 895.123 92.9038 899.166 94.495C903.21 96.0862 927.04 73.1359 935.127 75.5227C943.214 77.9708 918.219 100.125 913.318 104.593C908.417 109.061 912.154 114.691 913.318 116.283C914.482 117.874 924.59 120.322 920.179 122.709C915.707 125.157 918.954 151.351 918.157 168.487C918.157 168.487 899.963 121.852 889.487 121.485C889.487 121.485 772.599 215.734 747.849 276.813C747.849 276.996 723.712 320.388 774.008 289.91Z" fill="url(#paint12_linear_747_388)"/>
<path d="M245.073 23.9915V62.1197L213.216 87.5181L175.356 64.5066V26.3784L206.906 0.979996L245.073 23.9915Z" fill="url(#paint13_linear_747_388)"/>
<path d="M232.024 16.3414L199.31 40.5158L188.405 32.7433L220.2 8.99731L232.024 16.3414Z" fill="url(#paint14_linear_747_388)"/>
<defs>
<linearGradient id="paint0_linear_747_388" x1="0.269531" y1="173.486" x2="175.371" y2="173.486" gradientUnits="userSpaceOnUse">
<stop stop-color="#F88A55"/>
<stop offset="1" stop-color="#F9A456"/>
</linearGradient>
<linearGradient id="paint1_linear_747_388" x1="213.239" y1="246.725" x2="213.239" y2="100.246" gradientUnits="userSpaceOnUse">
<stop stop-color="#F88A55"/>
<stop offset="1" stop-color="#F9A456"/>
</linearGradient>
<linearGradient id="paint2_linear_747_388" x1="251.712" y1="173.486" x2="386.283" y2="173.486" gradientUnits="userSpaceOnUse">
<stop stop-color="#F88A55"/>
<stop offset="1" stop-color="#F9A456"/>
</linearGradient>
<linearGradient id="paint3_linear_747_388" x1="564.62" y1="173.486" x2="699.19" y2="173.486" gradientUnits="userSpaceOnUse">
<stop stop-color="#3394CA"/>
<stop offset="0.7501" stop-color="#464D86"/>
</linearGradient>
<linearGradient id="paint4_linear_747_388" x1="465.821" y1="203.791" x2="480.978" y2="66.9605" gradientUnits="userSpaceOnUse">
<stop stop-color="#3394CA"/>
<stop offset="0.7501" stop-color="#464D86"/>
</linearGradient>
<linearGradient id="paint5_linear_747_388" x1="1003.42" y1="173.486" x2="1135.3" y2="173.486" gradientUnits="userSpaceOnUse">
<stop stop-color="#3394CA"/>
<stop offset="0.7501" stop-color="#464D86"/>
</linearGradient>
<linearGradient id="paint6_linear_747_388" x1="841.039" y1="194.994" x2="985.684" y2="194.994" gradientUnits="userSpaceOnUse">
<stop stop-color="#3394CA"/>
<stop offset="0.7501" stop-color="#464D86"/>
</linearGradient>
<linearGradient id="paint7_linear_747_388" x1="712.187" y1="92.08" x2="926.671" y2="92.08" gradientUnits="userSpaceOnUse">
<stop stop-color="#3394CA"/>
<stop offset="0.7501" stop-color="#464D86"/>
</linearGradient>
<linearGradient id="paint8_linear_747_388" x1="710.84" y1="168.644" x2="784.893" y2="168.644" gradientUnits="userSpaceOnUse">
<stop stop-color="#3394CA"/>
<stop offset="0.7501" stop-color="#464D86"/>
</linearGradient>
<linearGradient id="paint9_linear_747_388" x1="716.731" y1="187.71" x2="820.641" y2="187.71" gradientUnits="userSpaceOnUse">
<stop stop-color="#3394CA"/>
<stop offset="0.7501" stop-color="#464D86"/>
</linearGradient>
<linearGradient id="paint10_linear_747_388" x1="761.466" y1="229.273" x2="864.871" y2="229.273" gradientUnits="userSpaceOnUse">
<stop stop-color="#3394CA"/>
<stop offset="0.7501" stop-color="#464D86"/>
</linearGradient>
<linearGradient id="paint11_linear_747_388" x1="798.223" y1="248.723" x2="862.447" y2="248.723" gradientUnits="userSpaceOnUse">
<stop stop-color="#3394CA"/>
<stop offset="0.7501" stop-color="#464D86"/>
</linearGradient>
<linearGradient id="paint12_linear_747_388" x1="721.118" y1="197.202" x2="936.748" y2="197.202" gradientUnits="userSpaceOnUse">
<stop stop-color="#F88A55"/>
<stop offset="1" stop-color="#F9A456"/>
</linearGradient>
<linearGradient id="paint13_linear_747_388" x1="175.371" y1="44.2576" x2="245.048" y2="44.2576" gradientUnits="userSpaceOnUse">
<stop stop-color="#3394CA"/>
<stop offset="0.7501" stop-color="#464D86"/>
</linearGradient>
<linearGradient id="paint14_linear_747_388" x1="188.398" y1="24.7608" x2="232.022" y2="24.7608" gradientUnits="userSpaceOnUse">
<stop stop-color="#F88A55"/>
<stop offset="1" stop-color="#F9A456"/>
</linearGradient>
</defs>
</svg>
