<svg width="19" height="19" viewBox="0 0 19 19" fill="none" xmlns="http://www.w3.org/2000/svg">
<path d="M16.175 16.337L16.721 15.791L14.885 13.954V11.23H14.115V14.276L16.175 16.337ZM2.115 16C1.66833 16 1.28733 15.8427 0.972 15.528C0.657333 15.2133 0.5 14.8323 0.5 14.385V1.615C0.5 1.16833 0.657333 0.787333 0.972 0.472C1.28667 0.157333 1.668 0 2.116 0H14.885C15.3317 0 15.7127 0.157333 16.028 0.472C16.3427 0.786667 16.5 1.168 16.5 1.616V7.566C16.3247 7.50533 16.1567 7.456 15.996 7.418C15.836 7.38067 15.6707 7.34333 15.5 7.306V1.616C15.5 1.462 15.436 1.32067 15.308 1.192C15.18 1.06333 15.0387 0.999333 14.884 1H2.116C1.962 1 1.82067 1.064 1.692 1.192C1.56333 1.32 1.49933 1.46133 1.5 1.616V14.385C1.5 14.5383 1.564 14.6793 1.692 14.808C1.82 14.9367 1.961 15.0007 2.115 15H7.781C7.805 15.1867 7.836 15.3603 7.874 15.521C7.912 15.681 7.961 15.8407 8.021 16H2.115ZM1.5 14V15V1V7.306V7.231V14ZM4 12.27H7.96C7.99667 12.0987 8.04667 11.933 8.11 11.773L8.31 11.269H4V12.27ZM4 8.5H10.58C10.9087 8.26933 11.2323 8.074 11.551 7.914C11.8697 7.75333 12.2117 7.62733 12.577 7.536V7.5H4V8.5ZM4 4.73H13V3.73H4V4.73ZM14.5 18.117C13.386 18.117 12.441 17.7287 11.665 16.952C10.8883 16.1753 10.5 15.23 10.5 14.116C10.5 13.002 10.8883 12.0567 11.665 11.28C12.4417 10.5033 13.3867 10.1153 14.5 10.116C15.6133 10.1167 16.5587 10.5047 17.336 11.28C18.1133 12.0553 18.5013 13.0007 18.5 14.116C18.5 15.2293 18.112 16.1743 17.336 16.951C16.5587 17.7277 15.6133 18.116 14.5 18.116" fill="black"/>
</svg>
