<svg width="28" height="22" viewBox="0 0 28 22" fill="none" xmlns="http://www.w3.org/2000/svg">
<path d="M4.68563 21.5799C4.31181 21.581 3.94789 21.4597 3.64952 21.2345C3.38066 21.0418 3.16585 20.7831 3.02565 20.4835C2.88546 20.1839 2.82457 19.8532 2.84887 19.5233L2.92739 17.7808C2.11051 17.5489 1.39134 17.0573 0.87868 16.3803C0.36602 15.7034 0.0877624 14.878 0.0859375 14.0288V4.02876C0.0900713 2.98498 0.506537 1.98516 1.2446 1.24709C1.98267 0.509027 2.98249 0.0925127 4.02627 0.0883789H23.2728C24.3179 0.0883789 25.3201 0.503533 26.0591 1.2425C26.7981 1.98146 27.2132 2.98371 27.2132 4.02876V14.0288C27.2132 15.0738 26.7981 16.0761 26.0591 16.8151C25.3201 17.554 24.3179 17.9692 23.2728 17.9692H10.5569L5.72175 21.3287C5.39919 21.488 5.04533 21.5737 4.68563 21.5799ZM4.02627 2.52165C3.60991 2.52165 3.21064 2.68707 2.91623 2.98148C2.62182 3.27589 2.4564 3.67516 2.4564 4.09152V14.0916C2.4564 14.5079 2.62182 14.9073 2.91623 15.2017C3.21064 15.4961 3.60991 15.6614 4.02627 15.6614H5.29786L5.40776 16.933L5.32929 18.7854L9.80341 15.6457H23.2728C23.6892 15.6457 24.0885 15.4804 24.3829 15.186C24.6773 14.8916 24.8427 14.4922 24.8427 14.0758V4.0758C24.8427 3.65945 24.6773 3.26017 24.3829 2.96576C24.0885 2.67136 23.6892 2.50594 23.2728 2.50594L4.02627 2.52165Z" fill="#2F83CB"/>
</svg>
