<svg width="34" height="23" viewBox="0 0 34 23" fill="none" xmlns="http://www.w3.org/2000/svg">
<path d="M16.7845 22.4804C8.76244 22.4804 6.17214 18.854 6.06224 18.697L5.85815 18.3831V10.7064C5.85815 10.3858 5.98555 10.0783 6.21225 9.8516C6.43894 9.62491 6.74639 9.49756 7.06698 9.49756C7.38757 9.49756 7.69502 9.62491 7.92172 9.8516C8.14841 10.0783 8.27576 10.3858 8.27576 10.7064V17.551C8.9665 18.2103 11.4155 20.0628 16.7845 20.0628C22.1534 20.0628 24.6338 18.226 25.2774 17.551V10.7064C25.2774 10.3858 25.4048 10.0783 25.6315 9.8516C25.8582 9.62491 26.1656 9.49756 26.4862 9.49756C26.8083 9.49753 27.1174 9.62439 27.3466 9.85064C27.5758 10.0769 27.7066 10.3844 27.7107 10.7064V18.3831L27.491 18.697C27.3811 18.854 24.7908 22.4804 16.7845 22.4804Z" fill="#2F83CB"/>
<path d="M16.7844 15.6511C16.5368 15.6512 16.2915 15.6031 16.0622 15.5098L1.38399 9.23034C1.04587 9.09282 0.757895 8.85522 0.55867 8.54937C0.359446 8.24352 0.258464 7.88409 0.269351 7.51924C0.277487 7.15206 0.39553 6.79573 0.608208 6.4963C0.820886 6.19687 1.11845 5.96808 1.46246 5.83947L16.1407 0.391987C16.5528 0.250848 17.0002 0.250848 17.4123 0.391987L32.0906 5.83947C32.4346 5.96808 32.7322 6.19687 32.9448 6.4963C33.1575 6.79573 33.2755 7.15206 33.2836 7.51924C33.2945 7.88409 33.1936 8.24352 32.9944 8.54937C32.7951 8.85522 32.5072 9.09282 32.169 9.23034L17.4908 15.5098C17.2669 15.6031 17.0269 15.6511 16.7844 15.6511ZM3.72308 7.62905L16.7687 13.1707L29.7985 7.62905L16.7687 2.79393L3.72308 7.62905Z" fill="#2F83CB"/>
<path d="M17.6652 8.3195H15.8913C15.5924 8.2855 15.3165 8.14271 15.1162 7.91832C14.9159 7.69393 14.8052 7.4037 14.8052 7.10292C14.8052 6.80213 14.9159 6.51181 15.1162 6.28742C15.3165 6.06303 15.5924 5.92023 15.8913 5.88623H17.6652C17.9641 5.92023 18.24 6.06303 18.4403 6.28742C18.6406 6.51181 18.7513 6.80213 18.7513 7.10292C18.7513 7.4037 18.6406 7.69393 18.4403 7.91832C18.24 8.14271 17.9641 8.2855 17.6652 8.3195Z" fill="#2F83CB"/>
</svg>
