<svg width="19" height="29" viewBox="0 0 19 29" fill="none" xmlns="http://www.w3.org/2000/svg">
<path d="M9.46046 28.8616C3.68336 28.8616 0.512207 25.5178 0.512207 19.4424V10.9808C0.512207 10.6602 0.639558 10.3527 0.866251 10.126C1.09294 9.89932 1.40044 9.77197 1.72103 9.77197C2.04309 9.77195 2.35218 9.89881 2.58138 10.1251C2.81057 10.3513 2.9414 10.6588 2.94553 10.9808V19.5209C2.94553 24.2305 5.01774 26.5068 9.46046 26.5068C13.9032 26.5068 15.8969 24.152 15.8969 19.5209V11.5459C15.8948 11.3866 15.9246 11.2284 15.9846 11.0808C16.0446 10.9332 16.1336 10.7992 16.2463 10.6865C16.3589 10.5739 16.493 10.4849 16.6407 10.4249C16.7883 10.3649 16.9464 10.3351 17.1057 10.3372C17.2658 10.3351 17.4246 10.3648 17.5731 10.4246C17.7216 10.4844 17.8567 10.5731 17.9706 10.6856C18.0846 10.798 18.175 10.932 18.2367 11.0797C18.2985 11.2274 18.3302 11.3859 18.3302 11.5459V19.5209C18.3302 25.4236 15.0963 28.8616 9.46046 28.8616Z" fill="#2F83CB"/>
<path d="M17.1048 15.8001C16.9448 15.8001 16.7863 15.7683 16.6386 15.7066C16.4909 15.6449 16.357 15.5544 16.2445 15.4405C16.132 15.3266 16.0433 15.1915 15.9835 15.043C15.9237 14.8946 15.894 14.7356 15.8961 14.5756V6.72622C15.9002 6.1945 15.7988 5.66729 15.5977 5.17504C15.3967 4.68279 15.0999 4.23534 14.7246 3.85861C14.3493 3.48189 13.903 3.18335 13.4116 2.98035C12.9201 2.77736 12.3932 2.67394 11.8615 2.67604C11.328 2.6675 10.7982 2.76651 10.3038 2.96723C9.80946 3.16795 9.36058 3.46621 8.98402 3.84424C8.60745 4.22227 8.31093 4.67231 8.11213 5.16747C7.91333 5.66264 7.81632 6.19275 7.82693 6.72622V14.1203C7.82693 14.4451 7.69792 14.7565 7.46829 14.9861C7.23865 15.2158 6.92719 15.3449 6.60244 15.3449C6.44237 15.3449 6.28388 15.3131 6.13619 15.2514C5.9885 15.1896 5.85455 15.0992 5.7421 14.9853C5.62964 14.8714 5.54095 14.7362 5.48114 14.5877C5.42132 14.4392 5.39158 14.2804 5.39366 14.1203V6.69489C5.39366 4.97951 6.0751 3.33441 7.28806 2.12145C8.50101 0.908492 10.1461 0.227051 11.8615 0.227051C13.5769 0.227051 15.222 0.908492 16.4349 2.12145C17.6479 3.33441 18.3293 4.97951 18.3293 6.69489V14.5442C18.3335 14.7076 18.305 14.8702 18.2453 15.0224C18.1857 15.1747 18.0961 15.3134 17.982 15.4304C17.8679 15.5475 17.7315 15.6405 17.5808 15.704C17.4302 15.7675 17.2683 15.8002 17.1048 15.8001Z" fill="#2F83CB"/>
<path d="M9.31725 22.9903C8.81758 23.0143 8.31836 22.9346 7.85097 22.7563C7.38358 22.5779 6.95811 22.3049 6.60137 21.9542C5.64688 20.7293 5.20761 19.1806 5.37687 17.637V10.3058C5.37476 10.1465 5.4046 9.9883 5.4646 9.84069C5.5246 9.69308 5.61355 9.55898 5.72622 9.44631C5.83889 9.33364 5.973 9.24473 6.12061 9.18473C6.26822 9.12473 6.42633 9.09485 6.58565 9.09696C6.74571 9.09488 6.90462 9.12462 7.0531 9.18444C7.20157 9.24426 7.33668 9.33299 7.4506 9.44545C7.56451 9.5579 7.65495 9.69185 7.71668 9.83954C7.77841 9.98723 7.81016 10.1457 7.81015 10.3058V17.4016C7.81015 18.422 7.81016 19.7093 8.31252 20.2431C8.44548 20.3628 8.60254 20.4528 8.77311 20.5069C8.94368 20.5611 9.12384 20.5781 9.30154 20.557C9.53137 20.5793 9.76336 20.5562 9.98424 20.4888C10.2051 20.4215 10.4106 20.3112 10.5888 20.1645C11.0299 19.4173 11.212 18.5455 11.1069 17.6842V8.26498C11.111 7.94295 11.2418 7.63549 11.471 7.40924C11.7002 7.18298 12.0093 7.05613 12.3314 7.05615C12.652 7.05615 12.9595 7.1835 13.1862 7.4102C13.4128 7.63689 13.5402 7.94439 13.5402 8.26498V17.4487C13.6438 18.2373 13.5904 19.0386 13.3829 19.8065C13.1755 20.5744 12.8181 21.2936 12.3314 21.9227C11.9267 22.2944 11.4511 22.5806 10.9332 22.764C10.4153 22.9474 9.86565 23.0244 9.31725 22.9903Z" fill="#2F83CB"/>
</svg>
