<svg width="25" height="26" viewBox="0 0 25 26" fill="none" xmlns="http://www.w3.org/2000/svg">
<path d="M14.9527 25.1805H11.3106C10.6861 25.1805 10.0871 24.9324 9.64552 24.4908C9.20391 24.0492 8.95583 23.4502 8.95583 22.8257V22.4332C8.31446 22.1988 7.69894 21.8989 7.11906 21.5384L6.5696 21.8523C6.03665 22.1446 5.41092 22.2178 4.82487 22.0567C4.23882 21.8955 3.73847 21.5126 3.42987 20.9889L1.60887 17.8492C1.29834 17.3125 1.21361 16.6744 1.37335 16.0752C1.45047 15.7752 1.58762 15.4939 1.7765 15.2484C1.96537 15.0029 2.20207 14.7982 2.47227 14.6467H2.59784C2.51378 14.1276 2.4718 13.6026 2.47227 13.0768C2.47227 12.8256 2.47227 12.5901 2.47227 12.339L2.07981 12.1035C1.54294 11.7942 1.14847 11.2871 0.980882 10.6906C0.900187 10.3908 0.880854 10.0777 0.924014 9.77015C0.967174 9.46264 1.07194 9.16701 1.23207 8.90095L3.0374 5.76122C3.35521 5.22595 3.86963 4.8361 4.47087 4.6748C5.07211 4.51349 5.7126 4.59351 6.25566 4.89781L6.50684 5.05476C7.06244 4.64714 7.6566 4.29489 8.2808 4.00297V3.32794C8.2808 2.70341 8.52888 2.10445 8.97049 1.66284C9.4121 1.22122 10.0111 0.973145 10.6356 0.973145H14.2777C14.9022 0.973145 15.5011 1.22122 15.9428 1.66284C16.3844 2.10445 16.6325 2.70341 16.6325 3.32794V4.00297C17.1424 4.23125 17.631 4.50442 18.0925 4.81929L19.003 4.30125C19.5422 3.98732 20.1841 3.90027 20.7875 4.05922C21.3909 4.21817 21.9065 4.61013 22.2212 5.14899L24.0422 8.28873C24.197 8.55669 24.2975 8.85251 24.3379 9.15932C24.3782 9.46613 24.3577 9.77788 24.2775 10.0768C24.1974 10.3757 24.059 10.6558 23.8705 10.9012C23.682 11.1466 23.4469 11.3524 23.1788 11.5069L22.4096 11.9465C22.4096 12.3233 22.4096 12.7 22.4096 13.0768C22.4174 13.197 22.4174 13.3177 22.4096 13.4379L23.4928 14.0501C24.0317 14.3647 24.4236 14.8804 24.5825 15.4838C24.7415 16.0872 24.6544 16.7291 24.3405 17.2684L22.5194 20.4081C22.2083 20.9291 21.7069 21.3087 21.121 21.4669C20.5352 21.625 19.9108 21.5493 19.3797 21.2558L18.7204 20.879C18.289 21.2216 17.8325 21.5312 17.3546 21.8053V22.8414C17.3505 23.1527 17.2852 23.4601 17.1622 23.7462C17.0393 24.0322 16.8612 24.2912 16.6382 24.5084C16.4151 24.7257 16.1515 24.8968 15.8623 25.0121C15.5731 25.1274 15.264 25.1846 14.9527 25.1805ZM7.1034 18.7597L8.04528 19.1993C8.73716 19.7038 9.51328 20.0811 10.3373 20.3139C10.6446 20.4139 10.9134 20.6062 11.1073 20.8647C11.3012 21.1232 11.4105 21.4352 11.4205 21.7582V22.8257L14.9841 22.7472L14.9056 20.4395L15.7533 19.8743C16.4204 19.5421 17.0385 19.1196 17.5901 18.6184C17.8303 18.414 18.1266 18.2867 18.4402 18.2531C18.7538 18.2195 19.0703 18.2812 19.3483 18.43L20.5728 19.1365L22.2526 16.091L20.0391 14.8193V13.7518C20.0391 13.5477 20.0391 13.2966 20.0391 13.0454C20.037 12.5926 19.9949 12.1408 19.9135 11.6953C19.8686 11.3901 19.9147 11.0784 20.0459 10.7992C20.1771 10.52 20.3877 10.2857 20.6513 10.1254L21.97 9.37189L20.1333 6.32639L18.7989 7.1898C18.5426 7.34363 18.2449 7.41418 17.9469 7.39169C17.6488 7.36919 17.3651 7.25478 17.1348 7.06423C16.5369 6.60967 15.8758 6.24475 15.1725 5.98102C14.896 5.86408 14.6588 5.67029 14.4891 5.42265C14.3193 5.17501 14.2242 4.88389 14.2149 4.58382V3.28085H10.6513L10.7298 4.50534C10.7306 4.81214 10.6358 5.11158 10.4586 5.362C10.2813 5.61241 10.0304 5.80132 9.74076 5.9025C8.95086 6.22651 8.2191 6.67724 7.57434 7.2369C7.3399 7.44195 7.04661 7.56758 6.73642 7.59578C6.42623 7.62398 6.11505 7.55331 5.84748 7.39389L5.04688 6.9229L3.3514 10.0626L4.24623 10.4865C4.51975 10.6354 4.73785 10.8686 4.86799 11.1515C4.99812 11.4345 5.03331 11.7518 4.96836 12.0564C4.83475 12.9553 4.87204 13.8714 5.07826 14.7566C5.12622 15.0586 5.0849 15.3681 4.9594 15.6469C4.8339 15.9258 4.62966 16.162 4.3718 16.3264L3.66539 16.7346L5.51782 19.7801L7.1034 18.7597ZM12.8491 18.6655C11.7524 18.6686 10.6794 18.3462 9.76606 17.7392C8.85268 17.1322 8.13995 16.2678 7.71811 15.2555C7.29627 14.2432 7.18431 13.1284 7.39636 12.0524C7.60841 10.9764 8.13493 9.98755 8.90931 9.21097C9.68369 8.43438 10.6711 7.90502 11.7465 7.68992C12.8219 7.47482 13.9369 7.58365 14.9504 8.00262C15.9639 8.42158 16.8304 9.13187 17.44 10.0435C18.0496 10.9552 18.375 12.0272 18.375 13.1239C18.3543 14.5909 17.7527 15.9899 16.7021 17.014C15.6515 18.0381 14.2377 18.6038 12.7706 18.587L12.8491 18.6655ZM12.8491 10.0313C12.2281 10.0313 11.6211 10.2154 11.1048 10.5604C10.5884 10.9054 10.186 11.3957 9.94835 11.9694C9.71071 12.5432 9.64855 13.1744 9.7697 13.7835C9.89085 14.3925 10.1899 14.952 10.629 15.3911C11.0681 15.8302 11.6275 16.1293 12.2366 16.2504C12.8456 16.3716 13.4769 16.3093 14.0506 16.0717C14.6243 15.8341 15.1147 15.4317 15.4597 14.9153C15.8047 14.399 15.9888 13.792 15.9888 13.171C15.9996 12.7454 15.9237 12.3221 15.7658 11.9268C15.6079 11.5315 15.3712 11.1724 15.0702 10.8714C14.7692 10.5704 14.4101 10.3337 14.0148 10.1758C13.6195 10.0179 13.1962 9.942 12.7706 9.95278L12.8491 10.0313Z" fill="#2F83CB"/>
</svg>
