<svg width="26" height="26" viewBox="0 0 26 26" fill="none" xmlns="http://www.w3.org/2000/svg">
<path d="M9.48479 6.4629H7.05151V5.53668C7.05151 4.1294 7.61057 2.77977 8.60567 1.78468C9.60076 0.789581 10.9504 0.230525 12.3577 0.230525H13.4723C14.5373 0.215253 15.582 0.521781 16.4699 1.10998C17.3578 1.69818 18.0475 2.54067 18.4488 3.52725L16.2039 4.46918C15.9842 3.94726 15.6151 3.5019 15.1431 3.18907C14.671 2.87624 14.1171 2.7099 13.5508 2.71094H12.4361C11.6742 2.71094 10.9435 3.01359 10.4047 3.55236C9.86596 4.09112 9.56336 4.82185 9.56336 5.58377L9.48479 6.4629Z" fill="#2F83CB"/>
<path d="M18.7936 6.4636H16.3603V5.53739C16.3562 4.77402 16.0501 4.04333 15.5088 3.50501C14.9676 2.96669 14.2352 2.66454 13.4718 2.66455H12.3572C11.7909 2.66352 11.237 2.82985 10.7649 3.14268C10.2929 3.45551 9.92383 3.90087 9.70413 4.42279L7.45923 3.52796C7.86455 2.56391 8.54572 1.74112 9.41715 1.16296C10.2886 0.584792 11.3114 0.27703 12.3572 0.278324H13.4718C14.8806 0.278318 16.2318 0.836871 17.2294 1.83152C18.227 2.82617 18.7895 4.17576 18.7936 5.58448V6.4636Z" fill="#2F83CB"/>
<path d="M21.8694 25.6152H3.95729C3.479 25.6152 3.00541 25.5209 2.56353 25.3379C2.12165 25.1549 1.72012 24.8866 1.38192 24.5484C1.04372 24.2102 0.775416 23.8087 0.592384 23.3668C0.409352 22.9249 0.315186 22.4513 0.315186 21.9731V8.88038C0.315186 7.91444 0.698892 6.98804 1.38192 6.30501C2.06494 5.62199 2.99134 5.23828 3.95729 5.23828H21.8694C22.8354 5.23828 23.7618 5.62199 24.4448 6.30501C25.1278 6.98804 25.5115 7.91444 25.5115 8.88038V21.9731C25.5115 22.939 25.1278 23.8654 24.4448 24.5484C23.7618 25.2315 22.8354 25.6152 21.8694 25.6152ZM3.95729 7.6716C3.63669 7.6716 3.3292 7.79895 3.1025 8.02565C2.87581 8.25234 2.74846 8.55979 2.74846 8.88038V21.9731C2.74846 22.2937 2.87581 22.6011 3.1025 22.8278C3.3292 23.0545 3.63669 23.1818 3.95729 23.1818H21.8694C22.19 23.1818 22.4975 23.0545 22.7242 22.8278C22.9509 22.6011 23.0782 22.2937 23.0782 21.9731V8.88038C23.0782 8.55979 22.9509 8.25234 22.7242 8.02565C22.4975 7.79895 22.19 7.6716 21.8694 7.6716H3.95729Z" fill="#2F83CB"/>
<path d="M23.9577 13.5278H1.86963V15.9612H23.9577V13.5278Z" fill="#2F83CB"/>
<path d="M12.9055 18.8966C12.5835 18.8925 12.2761 18.7617 12.0499 18.5325C11.8236 18.3033 11.6968 17.9942 11.6968 17.6721V14.7365C11.7308 14.4376 11.8736 14.1617 12.098 13.9614C12.3224 13.7611 12.6126 13.6504 12.9134 13.6504C13.2142 13.6504 13.5045 13.7611 13.7289 13.9614C13.9533 14.1617 14.096 14.4376 14.1301 14.7365V17.6564C14.1321 17.8185 14.102 17.9795 14.0414 18.1298C13.9808 18.2802 13.8909 18.417 13.777 18.5324C13.6631 18.6478 13.5274 18.7394 13.3778 18.8019C13.2282 18.8644 13.0676 18.8966 12.9055 18.8966Z" fill="#2F83CB"/>
</svg>
